<svg xmlns="http://www.w3.org/2000/svg" width="1320" height="740" viewBox="0 0 1320 740"><rect width="100%" height="100%" fill="#DDDDDD"/><path fill="#999999" d="M319.66 411.69h20.15v14.34h-62v-14.34h22.71v-65.33q0-3.88.23-7.98l-16.12 13.48q-1.4 1.09-2.75 1.36-1.36.27-2.56.04t-2.13-.82q-.93-.58-1.4-1.27l-6.04-8.3 34.17-29.06h15.74v97.88Zm48.28-64.71-10.08-1.78q1.17-8.06 4.5-14.15 3.33-6.08 8.33-10.15t11.47-6.12q6.47-2.05 13.91-2.05 7.75 0 13.99 2.2 6.24 2.21 10.66 6.13 4.41 3.91 6.78 9.18 2.36 5.27 2.36 11.39 0 5.35-1.2 9.42t-3.45 7.09q-2.25 3.02-5.58 5.12-3.33 2.09-7.52 3.48 10.08 3.18 15.04 9.69 4.96 6.51 4.96 16.35 0 8.37-3.1 14.8-3.1 6.44-8.37 10.82t-12.21 6.62q-6.93 2.25-14.68 2.25-8.45 0-14.73-1.94-6.28-1.93-10.92-5.73-4.66-3.8-7.91-9.3-3.26-5.5-5.58-12.71l8.45-3.49q3.33-1.4 6.24-.74 2.9.66 4.22 3.14 1.4 2.71 3.06 5.35 1.67 2.64 3.99 4.69 2.33 2.05 5.47 3.33 3.13 1.28 7.47 1.28 4.89 0 8.53-1.59 3.64-1.59 6.08-4.14 2.44-2.56 3.65-5.7 1.2-3.14 1.2-6.32 0-4.03-.86-7.32-.85-3.29-3.56-5.62t-7.79-3.64q-5.08-1.32-13.6-1.32v-13.64q7.05-.08 11.7-1.32 4.65-1.24 7.4-3.45 2.75-2.2 3.84-5.31 1.08-3.09 1.08-6.81 0-7.91-4.41-12.02-4.42-4.11-11.78-4.11-3.41 0-6.28.97t-5.15 2.72q-2.29 1.74-3.84 4.06-1.55 2.33-2.33 5.12-1.31 3.57-3.44 4.73-2.14 1.16-6.01.54Zm118.73 61.23h28.75q3.1 0 4.92 1.74 1.83 1.74 1.83 4.61v11.47h-76.89v-6.35q0-1.94.82-4.07.81-2.13 2.6-3.84l34.02-34.1q4.26-4.34 7.63-8.29 3.37-3.95 5.62-7.83t3.45-7.87q1.2-3.99 1.2-8.4 0-4.03-1.16-7.1-1.16-3.06-3.3-5.15-2.13-2.09-5.11-3.14-2.99-1.05-6.7-1.05-3.42 0-6.32.97-2.91.97-5.16 2.72-2.24 1.74-3.79 4.06-1.55 2.33-2.33 5.12-1.32 3.57-3.41 4.73-2.09 1.16-6.04.54l-10.08-1.78q1.17-8.06 4.5-14.15 3.33-6.08 8.33-10.15t11.47-6.12q6.47-2.05 13.91-2.05 7.75 0 14.18 2.28 6.44 2.29 11.01 6.47 4.57 4.19 7.13 10.08 2.55 5.89 2.55 13.09 0 6.21-1.82 11.47-1.82 5.27-4.88 10.08-3.06 4.81-7.17 9.3-4.1 4.5-8.6 9.15l-25.27 25.8q3.65-1.08 7.25-1.66 3.61-.58 6.86-.58ZM615.32 370q0 14.65-3.14 25.46t-8.68 17.86q-5.54 7.05-13.1 10.5-7.55 3.45-16.31 3.45-8.76 0-16.24-3.45-7.47-3.45-12.98-10.5-5.5-7.05-8.6-17.86-3.1-10.81-3.1-25.46 0-14.73 3.1-25.5t8.6-17.83q5.51-7.05 12.98-10.5 7.48-3.44 16.24-3.44 8.76 0 16.31 3.44 7.56 3.45 13.1 10.5 5.54 7.06 8.68 17.83 3.14 10.77 3.14 25.5Zm-19.76 0q0-12.17-1.78-20.15-1.79-7.99-4.77-12.71-2.99-4.73-6.86-6.63-3.88-1.9-8.06-1.9-4.11 0-7.94 1.9-3.84 1.9-6.79 6.63-2.94 4.72-4.68 12.71-1.75 7.98-1.75 20.15 0 12.16 1.75 20.15 1.74 7.98 4.68 12.71 2.95 4.72 6.79 6.62 3.83 1.9 7.94 1.9 4.18 0 8.06-1.9 3.87-1.9 6.86-6.62 2.98-4.73 4.77-12.71 1.78-7.99 1.78-20.15Zm142.83 30.38-10.15 10-26.27-26.28-26.51 26.43-10.15-10 26.5-26.58-25.26-25.26 10.07-10.08 25.27 25.26L727 338.76l10.23 10.08-25.19 25.19 26.35 26.35Zm53.24-86.41h77.42v8.29q0 3.72-.77 6-.78 2.29-1.55 3.84l-42.47 87.42q-1.32 2.71-3.72 4.61-2.4 1.9-6.43 1.9h-13.87l43.32-85.64q1.47-2.63 2.9-4.84 1.44-2.21 3.22-4.22h-53.63q-1.78 0-3.1-1.32t-1.32-3.1v-12.94Zm103.78 69.82h34.09v-36.65q0-5.2.7-11.47l-34.79 48.12Zm50.76 0h14.1v11.08q0 1.55-1.01 2.68-1 1.12-2.86 1.12h-10.23v27.36H929.5v-27.36h-47.27q-1.94 0-3.41-1.2-1.47-1.2-1.86-2.98l-2.01-9.69 53.08-70.91h18.14v69.9ZM1050.25 370q0 14.65-3.14 25.46t-8.68 17.86q-5.54 7.05-13.1 10.5-7.55 3.45-16.31 3.45-8.76 0-16.24-3.45-7.48-3.45-12.98-10.5t-8.6-17.86q-3.1-10.81-3.1-25.46 0-14.73 3.1-25.5t8.6-17.83q5.5-7.05 12.98-10.5 7.48-3.44 16.24-3.44 8.76 0 16.31 3.44 7.56 3.45 13.1 10.5 5.54 7.06 8.68 17.83 3.14 10.77 3.14 25.5Zm-19.76 0q0-12.17-1.78-20.15-1.79-7.99-4.77-12.71-2.98-4.73-6.86-6.63-3.87-1.9-8.06-1.9-4.11 0-7.94 1.9-3.84 1.9-6.78 6.63-2.95 4.72-4.69 12.71-1.75 7.98-1.75 20.15 0 12.16 1.75 20.15 1.74 7.98 4.69 12.71 2.94 4.72 6.78 6.62 3.83 1.9 7.94 1.9 4.19 0 8.06-1.9 3.88-1.9 6.86-6.62 2.98-4.73 4.77-12.71 1.78-7.99 1.78-20.15Z"/></svg>