<svg xmlns="http://www.w3.org/2000/svg" width="147" height="147" viewBox="0 0 147 147"><rect width="100%" height="100%" fill="#DDDDDD"/><path fill="#999999" d="M35.475 78.89h2.6v1.85h-8v-1.85h2.93v-8.43q0-.5.03-1.03l-2.08 1.74q-.18.14-.35.18-.18.03-.33 0-.16-.03-.28-.11-.12-.07-.18-.16l-.78-1.07 4.41-3.75h2.03v12.63Zm6.57-3.6h4.4v-4.73q0-.67.09-1.48l-4.49 6.21Zm6.55 0h1.82v1.43q0 .2-.13.34-.13.15-.37.15h-1.32v3.53h-2.15v-3.53h-6.1q-.25 0-.44-.16-.19-.15-.24-.38l-.26-1.25 6.85-9.15h2.34v9.02Zm3.26-9.01h9.99v1.07q0 .48-.1.77-.1.3-.2.5l-5.48 11.28q-.17.35-.48.6-.31.24-.83.24h-1.79l5.59-11.05q.19-.34.38-.63.18-.28.41-.54h-6.92q-.23 0-.4-.17t-.17-.4v-1.67Zm26.05 11.15-1.31 1.29-3.39-3.39-3.42 3.41-1.31-1.29 3.42-3.43-3.26-3.26 1.3-1.3 3.26 3.26 3.24-3.24 1.32 1.3-3.25 3.25 3.4 3.4Zm13.69 1.46h2.6v1.85h-8v-1.85h2.93v-8.43q0-.5.03-1.03l-2.08 1.74q-.18.14-.35.18-.18.03-.33 0-.16-.03-.28-.11-.12-.07-.18-.16l-.78-1.07 4.41-3.75h2.03v12.63Zm6.57-3.6h4.4v-4.73q0-.67.09-1.48l-4.49 6.21Zm6.55 0h1.82v1.43q0 .2-.13.34-.13.15-.37.15h-1.32v3.53h-2.15v-3.53h-6.1q-.25 0-.44-.16-.19-.15-.24-.38l-.26-1.25 6.85-9.15h2.34v9.02Zm3.26-9.01h9.99v1.07q0 .48-.1.77-.1.3-.2.5l-5.48 11.28q-.17.35-.48.6-.31.24-.83.24h-1.79l5.59-11.05q.19-.34.38-.63.18-.28.41-.54h-6.92q-.23 0-.4-.17t-.17-.4v-1.67Z"/></svg>