<svg xmlns="http://www.w3.org/2000/svg" width="315" height="180" viewBox="0 0 315 180"><rect width="100%" height="100%" fill="#DDDDDD"/><path fill="#999999" d="m66.86 83.76-2.73-.48q.32-2.19 1.22-3.84.9-1.64 2.26-2.75 1.35-1.1 3.11-1.66 1.75-.55 3.76-.55 2.1 0 3.8.6 1.69.59 2.88 1.66 1.2 1.06 1.84 2.48.64 1.43.64 3.09 0 1.45-.32 2.55-.33 1.11-.94 1.92-.61.82-1.51 1.39t-2.04.94q2.73.87 4.08 2.63 1.34 1.76 1.34 4.43 0 2.27-.84 4.01-.84 1.74-2.27 2.93-1.43 1.19-3.31 1.8-1.88.61-3.98.61-2.28 0-3.99-.53-1.7-.52-2.96-1.55t-2.14-2.52q-.88-1.49-1.51-3.45l2.29-.94q.9-.38 1.69-.2.79.18 1.14.85.38.73.83 1.45.45.71 1.08 1.27.63.55 1.49.9.85.35 2.02.35 1.32 0 2.31-.43t1.65-1.13q.66-.69.99-1.54.32-.85.32-1.71 0-1.09-.23-1.99-.23-.89-.96-1.52-.74-.63-2.11-.99-1.38-.35-3.69-.35v-3.7q1.91-.02 3.17-.36 1.26-.33 2.01-.93.74-.6 1.04-1.44.29-.84.29-1.85 0-2.14-1.2-3.25-1.19-1.11-3.19-1.11-.92 0-1.7.26-.78.26-1.4.73-.62.48-1.04 1.11-.42.63-.63 1.38-.35.97-.93 1.28-.58.32-1.63.15Zm35.64 17.53h5.46v3.89h-16.8v-3.89h6.15v-17.7q0-1.05.06-2.16l-4.36 3.65q-.38.3-.75.37t-.69.01q-.33-.06-.58-.22-.25-.16-.38-.35l-1.64-2.24 9.27-7.88h4.26v26.52Zm17.68-21.77-1.07 6.32q1.01-.21 1.93-.31.93-.09 1.79-.09 2.39 0 4.22.71 1.82.72 3.06 1.98t1.87 2.95q.63 1.69.63 3.64 0 2.42-.85 4.41-.85 2-2.36 3.41-1.51 1.42-3.58 2.2-2.07.78-4.51.78-1.42 0-2.7-.3-1.29-.29-2.41-.79-1.12-.49-2.08-1.13-.95-.64-1.71-1.35l1.6-2.21q.5-.71 1.32-.71.52 0 1.07.33.55.34 1.25.74.7.4 1.66.73.95.34 2.3.34 1.43 0 2.52-.46 1.09-.47 1.82-1.29.72-.83 1.09-1.98.36-1.14.36-2.49 0-2.48-1.43-3.87-1.44-1.4-4.26-1.4-2.16 0-4.43.8l-3.23-.92 2.52-14.75h14.99v2.21q0 1.11-.69 1.8-.69.7-2.35.7h-8.34Zm47.06 18.71-2.75 2.71-7.12-7.12-7.18 7.16-2.75-2.71 7.18-7.2-6.85-6.85 2.73-2.73 6.85 6.85 6.8-6.81 2.78 2.73-6.83 6.83 7.14 7.14Zm28.75 3.06h5.46v3.89h-16.8v-3.89h6.15v-17.7q0-1.05.07-2.16l-4.37 3.65q-.38.3-.75.37-.36.07-.69.01-.33-.06-.58-.22-.25-.16-.38-.35l-1.63-2.24 9.26-7.88h4.26v26.52Zm20.27.17q1.28 0 2.24-.36.97-.37 1.63-1.02.66-.65 1-1.56.33-.9.33-1.95 0-2.5-1.38-3.78-1.39-1.28-3.82-1.28-2.44 0-3.83 1.28-1.38 1.28-1.38 3.78 0 1.05.33 1.95.34.91 1 1.56.66.65 1.63 1.02.96.36 2.25.36Zm0-23.08q-1.16 0-2 .36-.84.36-1.4.96-.55.59-.81 1.37-.27.78-.27 1.64 0 .9.22 1.75t.75 1.52q.52.66 1.38 1.06.87.39 2.13.39 1.26 0 2.12-.39.86-.4 1.38-1.06.53-.67.75-1.52.22-.85.22-1.75 0-.86-.27-1.64-.28-.78-.82-1.37-.55-.6-1.39-.96-.84-.36-1.99-.36Zm5.12 10.97q2.77.9 4.09 2.76 1.33 1.86 1.33 4.54 0 2.02-.77 3.66-.77 1.64-2.15 2.79-1.39 1.16-3.33 1.79-1.94.63-4.29.63-2.36 0-4.3-.63t-3.33-1.79q-1.38-1.15-2.15-2.79-.77-1.64-.77-3.66 0-2.68 1.33-4.54 1.32-1.86 4.09-2.76-2.2-.93-3.31-2.63-1.1-1.7-1.1-4.09 0-1.73.71-3.22.7-1.49 1.96-2.59 1.26-1.1 3.01-1.72 1.76-.62 3.86-.62 2.1 0 3.85.62t3.01 1.72q1.26 1.1 1.97 2.59.7 1.49.7 3.22 0 2.39-1.1 4.09-1.11 1.7-3.31 2.63Zm30.37.65q0 3.97-.85 6.9-.85 2.92-2.36 4.84-1.5 1.91-3.55 2.84-2.04.94-4.42.94-2.37 0-4.4-.94-2.02-.93-3.51-2.84-1.49-1.92-2.33-4.84-.84-2.93-.84-6.9 0-3.99.84-6.91t2.33-4.83q1.49-1.91 3.51-2.85 2.03-.93 4.4-.93 2.38 0 4.42.93 2.05.94 3.55 2.85 1.51 1.91 2.36 4.83.85 2.92.85 6.91Zm-5.36 0q0-3.3-.48-5.46-.49-2.17-1.29-3.45-.81-1.28-1.86-1.79-1.05-.52-2.19-.52-1.11 0-2.15.52-1.04.51-1.84 1.79-.79 1.28-1.27 3.45-.47 2.16-.47 5.46 0 3.29.47 5.46.48 2.16 1.27 3.44.8 1.28 1.84 1.8 1.04.51 2.15.51 1.14 0 2.19-.51 1.05-.52 1.86-1.8.8-1.28 1.29-3.44.48-2.17.48-5.46Z"/></svg>