<svg xmlns="http://www.w3.org/2000/svg" width="427" height="300" viewBox="0 0 427 300"><rect width="100%" height="100%" fill="#DDDDDD"/><path fill="#999999" d="M92.285 155.075h12.54v-13.48q0-1.91.26-4.22l-12.8 17.7Zm18.67 0h5.19v4.07q0 .57-.38.99-.37.41-1.05.41h-3.76v10.06h-6.13v-10.06h-17.38q-.72 0-1.26-.44t-.68-1.1l-.74-3.56 19.52-26.08h6.67v25.71Zm24.02 8.97h10.58q1.14 0 1.81.65.67.64.67 1.69v4.22h-28.28v-2.34q0-.71.3-1.49.3-.79.96-1.41l12.51-12.54q1.57-1.6 2.81-3.05 1.24-1.46 2.06-2.88.83-1.43 1.27-2.89.44-1.47.44-3.1 0-1.48-.42-2.6-.43-1.13-1.21-1.9-.79-.77-1.89-1.15-1.09-.39-2.46-.39-1.26 0-2.32.36-1.07.35-1.9.99-.83.65-1.4 1.5-.57.86-.85 1.88-.49 1.31-1.25 1.74-.77.43-2.23.2l-3.7-.66q.42-2.96 1.65-5.2 1.23-2.23 3.06-3.73 1.84-1.5 4.22-2.25 2.38-.76 5.12-.76 2.85 0 5.21.84 2.37.84 4.05 2.38 1.68 1.54 2.62 3.71.94 2.16.94 4.81 0 2.29-.67 4.22-.67 1.94-1.79 3.71-1.13 1.77-2.64 3.42-1.51 1.65-3.16 3.36l-9.29 9.49q1.34-.4 2.66-.61 1.33-.22 2.52-.22Zm18.33-34.65h28.47v3.05q0 1.37-.28 2.21-.29.84-.57 1.41l-15.62 32.15q-.49.99-1.37 1.69-.88.7-2.37.7h-5.1l15.93-31.49q.55-.97 1.07-1.78.53-.82 1.19-1.56h-19.73q-.65 0-1.14-.48-.48-.49-.48-1.14v-4.76Zm74.24 31.78-3.73 3.67-9.66-9.66-9.75 9.72-3.73-3.68 9.74-9.77-9.29-9.29 3.71-3.71 9.29 9.29 9.23-9.23 3.76 3.7-9.26 9.27 9.69 9.69Zm23.71-19.64-3.7-.66q.43-2.96 1.65-5.2 1.23-2.23 3.07-3.73 1.83-1.5 4.21-2.25 2.38-.76 5.12-.76 2.85 0 5.14.82 2.3.81 3.92 2.25 1.63 1.44 2.5 3.37.87 1.94.87 4.19 0 1.97-.45 3.47-.44 1.49-1.26 2.6-.83 1.12-2.06 1.88-1.22.77-2.76 1.29 3.7 1.17 5.53 3.56 1.82 2.39 1.82 6.01 0 3.08-1.14 5.45-1.14 2.36-3.08 3.97-1.93 1.61-4.48 2.44-2.56.83-5.41.83-3.1 0-5.41-.72-2.31-.71-4.02-2.11-1.71-1.39-2.91-3.42-1.19-2.02-2.05-4.67l3.11-1.28q1.22-.52 2.29-.27 1.07.24 1.56 1.15.51 1 1.12 1.97.61.97 1.47 1.72.85.76 2.01 1.23 1.15.47 2.75.47 1.79 0 3.13-.59 1.34-.58 2.24-1.52.9-.94 1.34-2.1.44-1.15.44-2.32 0-1.48-.31-2.69t-1.31-2.07q-1-.85-2.87-1.34-1.86-.48-5-.48v-5.02q2.6-.03 4.31-.48 1.71-.46 2.72-1.27 1.01-.81 1.41-1.95.4-1.14.4-2.51 0-2.91-1.63-4.42-1.62-1.51-4.33-1.51-1.25 0-2.31.36-1.05.35-1.89.99-.84.65-1.41 1.5-.57.86-.86 1.88-.48 1.31-1.27 1.74-.78.43-2.21.2Zm57.92 8.46q0 5.39-1.16 9.37-1.15 3.97-3.19 6.57-2.04 2.59-4.82 3.86-2.78 1.27-6 1.27t-5.97-1.27q-2.75-1.27-4.77-3.86-2.02-2.6-3.16-6.57-1.14-3.98-1.14-9.37 0-5.41 1.14-9.37 1.14-3.96 3.16-6.56 2.02-2.59 4.77-3.86 2.75-1.27 5.97-1.27 3.22 0 6 1.27t4.82 3.86q2.04 2.6 3.19 6.56 1.16 3.96 1.16 9.37Zm-7.27 0q0-4.47-.66-7.41-.65-2.93-1.75-4.67-1.1-1.74-2.52-2.44-1.43-.69-2.97-.69-1.51 0-2.92.69-1.41.7-2.49 2.44-1.08 1.74-1.73 4.67-.64 2.94-.64 7.41 0 4.48.64 7.41.65 2.94 1.73 4.68 1.08 1.74 2.49 2.44 1.41.69 2.92.69 1.54 0 2.97-.69 1.42-.7 2.52-2.44t1.75-4.68q.66-2.93.66-7.41Zm40.33 0q0 5.39-1.16 9.37-1.15 3.97-3.19 6.57-2.04 2.59-4.82 3.86-2.78 1.27-6 1.27t-5.97-1.27q-2.75-1.27-4.77-3.86-2.02-2.6-3.16-6.57-1.14-3.98-1.14-9.37 0-5.41 1.14-9.37 1.14-3.96 3.16-6.56 2.02-2.59 4.77-3.86 2.75-1.27 5.97-1.27 3.22 0 6 1.27t4.82 3.86q2.04 2.6 3.19 6.56 1.16 3.96 1.16 9.37Zm-7.27 0q0-4.47-.66-7.41-.65-2.93-1.75-4.67-1.1-1.74-2.52-2.44-1.43-.69-2.97-.69-1.51 0-2.92.69-1.41.7-2.49 2.44-1.08 1.74-1.73 4.67-.64 2.94-.64 7.41 0 4.48.64 7.41.65 2.94 1.73 4.68 1.08 1.74 2.49 2.44 1.41.69 2.92.69 1.54 0 2.97-.69 1.42-.7 2.52-2.44t1.75-4.68q.66-2.93.66-7.41Z"/></svg>